{
    "asset" : {
        "generator" : "Khronos glTF Blender I/O v1.4.40",
        "version" : "2.0"
    },
    "extensionsUsed" : [
        "KHR_texture_transform"
    ],
    "extensionsRequired" : [
        "KHR_texture_transform"
    ],
    "scene" : 0,
    "scenes" : [
        {
            "name" : "Scene",
            "nodes" : [
                0,
                1,
                2,
                3,
                4,
                5,
                6
            ]
        }
    ],
    "nodes" : [
        {
            "name" : "EmptyEntarance",
            "translation" : [
                -0.12164372205734253,
                0.04255175590515137,
                5.202101230621338
            ]
        },
        {
            "name" : "EmptyGarageDoor",
            "translation" : [
                3.0517048835754395,
                0.04255175590515137,
                -15.412275314331055
            ]
        },
        {
            "name" : "EmptySideDoor",
            "translation" : [
                8.076428413391113,
                0.04255175590515137,
                -5.894263744354248
            ]
        },
        {
            "name" : "EmptySideDoor2",
            "translation" : [
                -8.702601432800293,
                0.04255175590515137,
                -3.8676486015319824
            ]
        },
        {
            "mesh" : 0,
            "name" : "Floor",
            "translation" : [
                0.011686712503433228,
                0.012323610484600067,
                -5.825272560119629
            ]
        },
        {
            "mesh" : 1,
            "name" : "Roof",
            "translation" : [
                -0.12164372205734253,
                4.611154556274414,
                -1.3803011178970337
            ]
        },
        {
            "mesh" : 2,
            "name" : "Walls",
            "translation" : [
                -0.12164372205734253,
                0.04255175590515137,
                -1.3803011178970337
            ]
        }
    ],
    "materials" : [
        {
            "doubleSided" : true,
            "name" : "Floor",
            "pbrMetallicRoughness" : {
                "baseColorTexture" : {
                    "extensions" : {
                        "KHR_texture_transform" : {
                            "offset" : [
                                0,
                                -24.89999771118164
                            ],
                            "scale" : [
                                25.89999771118164,
                                25.89999771118164
                            ]
                        }
                    },
                    "index" : 0,
                    "texCoord" : 0
                },
                "metallicFactor" : 0,
                "roughnessFactor" : 0.5
            }
        },
        {
            "doubleSided" : true,
            "name" : "Roof",
            "pbrMetallicRoughness" : {
                "baseColorTexture" : {
                    "index" : 1,
                    "texCoord" : 0
                },
                "metallicFactor" : 0,
                "roughnessFactor" : 0.5
            }
        },
        {
            "doubleSided" : true,
            "name" : "Walls",
            "pbrMetallicRoughness" : {
                "baseColorTexture" : {
                    "index" : 2,
                    "texCoord" : 0
                },
                "metallicFactor" : 0,
                "roughnessFactor" : 0.5
            }
        }
    ],
    "meshes" : [
        {
            "name" : "Cube.002",
            "primitives" : [
                {
                    "attributes" : {
                        "POSITION" : 0,
                        "NORMAL" : 1,
                        "TEXCOORD_0" : 2
                    },
                    "indices" : 3,
                    "material" : 0
                }
            ]
        },
        {
            "name" : "Cube.017",
            "primitives" : [
                {
                    "attributes" : {
                        "POSITION" : 4,
                        "NORMAL" : 5,
                        "TEXCOORD_0" : 6
                    },
                    "indices" : 3,
                    "material" : 1
                }
            ]
        },
        {
            "name" : "Cube.001",
            "primitives" : [
                {
                    "attributes" : {
                        "POSITION" : 7,
                        "NORMAL" : 8,
                        "TEXCOORD_0" : 9
                    },
                    "indices" : 10,
                    "material" : 2
                }
            ]
        }
    ],
    "textures" : [
        {
            "sampler" : 0,
            "source" : 0
        },
        {
            "sampler" : 0,
            "source" : 1
        },
        {
            "sampler" : 0,
            "source" : 2
        }
    ],
    "images" : [
        {
            "bufferView" : 4,
            "mimeType" : "image/png",
            "name" : "Floor_1"
        },
        {
            "bufferView" : 8,
            "mimeType" : "image/png",
            "name" : "Roof"
        },
        {
            "bufferView" : 13,
            "mimeType" : "image/png",
            "name" : "Walls"
        }
    ],
    "accessors" : [
        {
            "bufferView" : 0,
            "componentType" : 5126,
            "count" : 8,
            "max" : [
                8.558860778808594,
                4.6566128730773926e-08,
                11.015812873840332
            ],
            "min" : [
                -8.825521469116211,
                -2.421438694000244e-08,
                -9.600614547729492
            ],
            "type" : "VEC3"
        },
        {
            "bufferView" : 1,
            "componentType" : 5126,
            "count" : 8,
            "type" : "VEC3"
        },
        {
            "bufferView" : 2,
            "componentType" : 5126,
            "count" : 8,
            "type" : "VEC2"
        },
        {
            "bufferView" : 3,
            "componentType" : 5123,
            "count" : 12,
            "type" : "SCALAR"
        },
        {
            "bufferView" : 5,
            "componentType" : 5126,
            "count" : 8,
            "max" : [
                8.692191123962402,
                -0.03022809885442257,
                6.570841312408447
            ],
            "min" : [
                -8.692191123962402,
                -0.03022816963493824,
                -14.045585632324219
            ],
            "type" : "VEC3"
        },
        {
            "bufferView" : 6,
            "componentType" : 5126,
            "count" : 8,
            "type" : "VEC3"
        },
        {
            "bufferView" : 7,
            "componentType" : 5126,
            "count" : 8,
            "type" : "VEC2"
        },
        {
            "bufferView" : 9,
            "componentType" : 5126,
            "count" : 538,
            "max" : [
                9.060450553894043,
                4.5912628173828125,
                6.800841331481934
            ],
            "min" : [
                -8.954330444335938,
                -0.03022816963493824,
                -14.275588035583496
            ],
            "type" : "VEC3"
        },
        {
            "bufferView" : 10,
            "componentType" : 5126,
            "count" : 538,
            "type" : "VEC3"
        },
        {
            "bufferView" : 11,
            "componentType" : 5126,
            "count" : 538,
            "type" : "VEC2"
        },
        {
            "bufferView" : 12,
            "componentType" : 5123,
            "count" : 1002,
            "type" : "SCALAR"
        }
    ],
    "bufferViews" : [
        {
            "buffer" : 0,
            "byteLength" : 96,
            "byteOffset" : 0
        },
        {
            "buffer" : 0,
            "byteLength" : 96,
            "byteOffset" : 96
        },
        {
            "buffer" : 0,
            "byteLength" : 64,
            "byteOffset" : 192
        },
        {
            "buffer" : 0,
            "byteLength" : 24,
            "byteOffset" : 256
        },
        {
            "buffer" : 0,
            "byteLength" : 28210,
            "byteOffset" : 280
        },
        {
            "buffer" : 0,
            "byteLength" : 96,
            "byteOffset" : 28492
        },
        {
            "buffer" : 0,
            "byteLength" : 96,
            "byteOffset" : 28588
        },
        {
            "buffer" : 0,
            "byteLength" : 64,
            "byteOffset" : 28684
        },
        {
            "buffer" : 0,
            "byteLength" : 405382,
            "byteOffset" : 28748
        },
        {
            "buffer" : 0,
            "byteLength" : 6456,
            "byteOffset" : 434132
        },
        {
            "buffer" : 0,
            "byteLength" : 6456,
            "byteOffset" : 440588
        },
        {
            "buffer" : 0,
            "byteLength" : 4304,
            "byteOffset" : 447044
        },
        {
            "buffer" : 0,
            "byteLength" : 2004,
            "byteOffset" : 451348
        },
        {
            "buffer" : 0,
            "byteLength" : 268502,
            "byteOffset" : 453352
        }
    ],
    "samplers" : [
        {
            "magFilter" : 9729,
            "minFilter" : 9986
        }
    ],
    "buffers" : [
        {
            "byteLength" : 721856,
            "uri" : "data:application/octet-stream;base64,"
        }
    ]
}
