{
    "asset" : {
        "generator" : "Khronos glTF Blender I/O v1.4.40",
        "version" : "2.0"
    },
    "extensionsUsed" : [
        "KHR_materials_transmission"
    ],
    "scene" : 0,
    "scenes" : [
        {
            "name" : "Scene",
            "nodes" : [
                1
            ]
        }
    ],
    "nodes" : [
        {
            "mesh" : 0,
            "name" : "DoorKnob",
            "translation" : [
                -0.38063204288482666,
                0.9917399883270264,
                -0.0041468883864581585
            ]
        },
        {
            "children" : [
                0
            ],
            "mesh" : 1,
            "name" : "Door"
        }
    ],
    "materials" : [
        {
            "doubleSided" : true,
            "name" : "Doorknob",
            "pbrMetallicRoughness" : {
                "baseColorFactor" : [
                    0.2697356641292572,
                    0.2697356641292572,
                    0.2697356641292572,
                    1
                ],
                "metallicFactor" : 0,
                "roughnessFactor" : 0.5
            }
        },
        {
            "doubleSided" : true,
            "name" : "Door",
            "pbrMetallicRoughness" : {
                "baseColorTexture" : {
                    "index" : 0,
                    "texCoord" : 0
                },
                "metallicFactor" : 0,
                "roughnessFactor" : 0.5
            }
        },
        {
            "doubleSided" : true,
            "extensions" : {
                "KHR_materials_transmission" : {
                    "transmissionFactor" : 1
                }
            },
            "name" : "DoorGlass",
            "pbrMetallicRoughness" : {
                "baseColorTexture" : {
                    "index" : 1,
                    "texCoord" : 0
                },
                "metallicFactor" : 0,
                "roughnessFactor" : 0
            }
        }
    ],
    "meshes" : [
        {
            "name" : "Circle",
            "primitives" : [
                {
                    "attributes" : {
                        "POSITION" : 0,
                        "NORMAL" : 1,
                        "TEXCOORD_0" : 2
                    },
                    "indices" : 3,
                    "material" : 0
                }
            ]
        },
        {
            "name" : "Plane",
            "primitives" : [
                {
                    "attributes" : {
                        "POSITION" : 4,
                        "NORMAL" : 5,
                        "TEXCOORD_0" : 6
                    },
                    "indices" : 7,
                    "material" : 1
                },
                {
                    "attributes" : {
                        "POSITION" : 8,
                        "NORMAL" : 9,
                        "TEXCOORD_0" : 10
                    },
                    "indices" : 11,
                    "material" : 2
                }
            ]
        }
    ],
    "textures" : [
        {
            "sampler" : 0,
            "source" : 0
        },
        {
            "sampler" : 0,
            "source" : 0
        }
    ],
    "images" : [
        {
            "bufferView" : 8,
            "mimeType" : "image/png",
            "name" : "Door"
        }
    ],
    "accessors" : [
        {
            "bufferView" : 0,
            "componentType" : 5126,
            "count" : 144,
            "max" : [
                0.06066163629293442,
                0.06066145375370979,
                0.08025132119655609
            ],
            "min" : [
                -0.060661543160676956,
                -0.06066172569990158,
                -4.29551505476411e-09
            ],
            "type" : "VEC3"
        },
        {
            "bufferView" : 1,
            "componentType" : 5126,
            "count" : 144,
            "type" : "VEC3"
        },
        {
            "bufferView" : 2,
            "componentType" : 5126,
            "count" : 144,
            "type" : "VEC2"
        },
        {
            "bufferView" : 3,
            "componentType" : 5123,
            "count" : 228,
            "type" : "SCALAR"
        },
        {
            "bufferView" : 4,
            "componentType" : 5126,
            "count" : 108,
            "max" : [
                0.5,
                1.993735909461975,
                -0.0013855646830052137
            ],
            "min" : [
                -0.4996398091316223,
                -0.006264328956604004,
                -0.0757422149181366
            ],
            "type" : "VEC3"
        },
        {
            "bufferView" : 5,
            "componentType" : 5126,
            "count" : 108,
            "type" : "VEC3"
        },
        {
            "bufferView" : 6,
            "componentType" : 5126,
            "count" : 108,
            "type" : "VEC2"
        },
        {
            "bufferView" : 7,
            "componentType" : 5123,
            "count" : 168,
            "type" : "SCALAR"
        },
        {
            "bufferView" : 9,
            "componentType" : 5126,
            "count" : 8,
            "max" : [
                0.385808527469635,
                1.8623546361923218,
                -0.032208461314439774
            ],
            "min" : [
                -0.385448157787323,
                1.1445423364639282,
                -0.04491928592324257
            ],
            "type" : "VEC3"
        },
        {
            "bufferView" : 10,
            "componentType" : 5126,
            "count" : 8,
            "type" : "VEC3"
        },
        {
            "bufferView" : 11,
            "componentType" : 5126,
            "count" : 8,
            "type" : "VEC2"
        },
        {
            "bufferView" : 12,
            "componentType" : 5123,
            "count" : 12,
            "type" : "SCALAR"
        }
    ],
    "bufferViews" : [
        {
            "buffer" : 0,
            "byteLength" : 1728,
            "byteOffset" : 0
        },
        {
            "buffer" : 0,
            "byteLength" : 1728,
            "byteOffset" : 1728
        },
        {
            "buffer" : 0,
            "byteLength" : 1152,
            "byteOffset" : 3456
        },
        {
            "buffer" : 0,
            "byteLength" : 456,
            "byteOffset" : 4608
        },
        {
            "buffer" : 0,
            "byteLength" : 1296,
            "byteOffset" : 5064
        },
        {
            "buffer" : 0,
            "byteLength" : 1296,
            "byteOffset" : 6360
        },
        {
            "buffer" : 0,
            "byteLength" : 864,
            "byteOffset" : 7656
        },
        {
            "buffer" : 0,
            "byteLength" : 336,
            "byteOffset" : 8520
        },
        {
            "buffer" : 0,
            "byteLength" : 342350,
            "byteOffset" : 8856
        },
        {
            "buffer" : 0,
            "byteLength" : 96,
            "byteOffset" : 351208
        },
        {
            "buffer" : 0,
            "byteLength" : 96,
            "byteOffset" : 351304
        },
        {
            "buffer" : 0,
            "byteLength" : 64,
            "byteOffset" : 351400
        },
        {
            "buffer" : 0,
            "byteLength" : 24,
            "byteOffset" : 351464
        }
    ],
    "samplers" : [
        {
            "magFilter" : 9729,
            "minFilter" : 9986
        }
    ],
    "buffers" : [
        {
            "byteLength" : 351488,
            "uri" : "data:application/octet-stream;base64,"
        }
    ]
}
