{
    "asset" : {
        "generator" : "Khronos glTF Blender I/O v1.4.40",
        "version" : "2.0"
    },
    "scene" : 0,
    "scenes" : [
        {
            "name" : "Scene",
            "nodes" : [
                0
            ]
        }
    ],
    "nodes" : [
        {
            "mesh" : 0,
            "name" : "Potato",
            "scale" : [
                0.22460149228572845,
                0.22495020925998688,
                0.22460150718688965
            ]
        }
    ],
    "materials" : [
        {
            "doubleSided" : true,
            "name" : "Potato",
            "pbrMetallicRoughness" : {
                "baseColorTexture" : {
                    "index" : 0,
                    "texCoord" : 0
                },
                "metallicFactor" : 0,
                "roughnessFactor" : 0.911347508430481
            }
        }
    ],
    "meshes" : [
        {
            "name" : "Icosphere",
            "primitives" : [
                {
                    "attributes" : {
                        "POSITION" : 0,
                        "NORMAL" : 1,
                        "TEXCOORD_0" : 2
                    },
                    "indices" : 3,
                    "material" : 0
                }
            ]
        }
    ],
    "textures" : [
        {
            "sampler" : 0,
            "source" : 0
        }
    ],
    "images" : [
        {
            "bufferView" : 4,
            "mimeType" : "image/png",
            "name" : "Potato"
        }
    ],
    "accessors" : [
        {
            "bufferView" : 0,
            "componentType" : 5126,
            "count" : 204,
            "max" : [
                0.5522187352180481,
                0.6594261527061462,
                0.36030343174934387
            ],
            "min" : [
                -0.5439916849136353,
                -0.007388142868876457,
                -0.324678510427475
            ],
            "type" : "VEC3"
        },
        {
            "bufferView" : 1,
            "componentType" : 5126,
            "count" : 204,
            "type" : "VEC3"
        },
        {
            "bufferView" : 2,
            "componentType" : 5126,
            "count" : 204,
            "type" : "VEC2"
        },
        {
            "bufferView" : 3,
            "componentType" : 5123,
            "count" : 204,
            "type" : "SCALAR"
        }
    ],
    "bufferViews" : [
        {
            "buffer" : 0,
            "byteLength" : 2448,
            "byteOffset" : 0
        },
        {
            "buffer" : 0,
            "byteLength" : 2448,
            "byteOffset" : 2448
        },
        {
            "buffer" : 0,
            "byteLength" : 1632,
            "byteOffset" : 4896
        },
        {
            "buffer" : 0,
            "byteLength" : 408,
            "byteOffset" : 6528
        },
        {
            "buffer" : 0,
            "byteLength" : 533425,
            "byteOffset" : 6936
        }
    ],
    "samplers" : [
        {
            "magFilter" : 9729,
            "minFilter" : 9986
        }
    ],
    "buffers" : [
        {
            "byteLength" : 540364,
            "uri" : "data:application/octet-stream;base64,"
        }
    ]
}
