{
    "asset" : {
        "generator" : "Khronos glTF Blender I/O v1.4.40",
        "version" : "2.0"
    },
    "scene" : 0,
    "scenes" : [
        {
            "name" : "Scene",
            "nodes" : [
                6
            ]
        }
    ],
    "nodes" : [
        {
            "mesh" : 0,
            "name" : "Egg1",
            "rotation" : [
                0.029292041435837746,
                -0.6823598742485046,
                -0.039525557309389114,
                0.7293590903282166
            ],
            "translation" : [
                -0.2301853895187378,
                0.06681855022907257,
                0.11376003921031952
            ]
        },
        {
            "mesh" : 1,
            "name" : "Egg2",
            "rotation" : [
                -0.04788956046104431,
                -0.2937628924846649,
                -0.016033096238970757,
                0.9545432925224304
            ],
            "translation" : [
                -0.2279944270849228,
                0.06681855022907257,
                -0.11673653870820999
            ]
        },
        {
            "mesh" : 2,
            "name" : "Egg3",
            "rotation" : [
                -0.03401019424200058,
                0.36665502190589905,
                -0.06764229387044907,
                0.9272712469100952
            ],
            "translation" : [
                0.0014655246632173657,
                0.06681855022907257,
                -0.11777593195438385
            ]
        },
        {
            "mesh" : 3,
            "name" : "Egg4",
            "rotation" : [
                0.03380974754691124,
                -0.017760658636689186,
                0.06747401505708694,
                0.9969898462295532
            ],
            "translation" : [
                0.003617058275267482,
                0.06681855022907257,
                0.11376003921031952
            ]
        },
        {
            "mesh" : 4,
            "name" : "Egg5",
            "rotation" : [
                0.011903421021997929,
                0.5426848530769348,
                -0.07084385305643082,
                0.8368587493896484
            ],
            "translation" : [
                0.23493525385856628,
                0.06681855022907257,
                -0.11673653870820999
            ]
        },
        {
            "mesh" : 5,
            "name" : "Egg6",
            "rotation" : [
                -0.08284282684326172,
                0.8138123750686646,
                0.006185766775161028,
                0.5751593112945557
            ],
            "translation" : [
                0.23367378115653992,
                0.06681855022907257,
                0.1200672909617424
            ]
        },
        {
            "children" : [
                0,
                1,
                2,
                3,
                4,
                5
            ],
            "mesh" : 6,
            "name" : "EggPack",
            "translation" : [
                0,
                -0.036155395209789276,
                0
            ]
        }
    ],
    "materials" : [
        {
            "doubleSided" : true,
            "name" : "Material.001",
            "pbrMetallicRoughness" : {
                "baseColorTexture" : {
                    "index" : 0,
                    "texCoord" : 0
                },
                "metallicFactor" : 0,
                "roughnessFactor" : 0.890070915222168
            }
        },
        {
            "doubleSided" : true,
            "name" : "Eggpack",
            "pbrMetallicRoughness" : {
                "baseColorTexture" : {
                    "index" : 1,
                    "texCoord" : 0
                },
                "metallicFactor" : 0,
                "roughnessFactor" : 0.5
            }
        }
    ],
    "meshes" : [
        {
            "name" : "Icosphere.006",
            "primitives" : [
                {
                    "attributes" : {
                        "POSITION" : 0,
                        "NORMAL" : 1,
                        "TEXCOORD_0" : 2
                    },
                    "indices" : 3,
                    "material" : 0
                }
            ]
        },
        {
            "name" : "Icosphere.003",
            "primitives" : [
                {
                    "attributes" : {
                        "POSITION" : 4,
                        "NORMAL" : 5,
                        "TEXCOORD_0" : 6
                    },
                    "indices" : 7,
                    "material" : 0
                }
            ]
        },
        {
            "name" : "Icosphere.004",
            "primitives" : [
                {
                    "attributes" : {
                        "POSITION" : 8,
                        "NORMAL" : 9,
                        "TEXCOORD_0" : 10
                    },
                    "indices" : 11,
                    "material" : 0
                }
            ]
        },
        {
            "name" : "Icosphere.007",
            "primitives" : [
                {
                    "attributes" : {
                        "POSITION" : 12,
                        "NORMAL" : 13,
                        "TEXCOORD_0" : 14
                    },
                    "indices" : 15,
                    "material" : 0
                }
            ]
        },
        {
            "name" : "Icosphere.005",
            "primitives" : [
                {
                    "attributes" : {
                        "POSITION" : 16,
                        "NORMAL" : 17,
                        "TEXCOORD_0" : 18
                    },
                    "indices" : 19,
                    "material" : 0
                }
            ]
        },
        {
            "name" : "Icosphere.008",
            "primitives" : [
                {
                    "attributes" : {
                        "POSITION" : 20,
                        "NORMAL" : 21,
                        "TEXCOORD_0" : 22
                    },
                    "indices" : 23,
                    "material" : 0
                }
            ]
        },
        {
            "name" : "Plane",
            "primitives" : [
                {
                    "attributes" : {
                        "POSITION" : 24,
                        "NORMAL" : 25,
                        "TEXCOORD_0" : 26
                    },
                    "indices" : 27,
                    "material" : 1
                }
            ]
        }
    ],
    "textures" : [
        {
            "sampler" : 0,
            "source" : 0
        },
        {
            "sampler" : 0,
            "source" : 1
        }
    ],
    "images" : [
        {
            "bufferView" : 4,
            "mimeType" : "image/png",
            "name" : "Eggs"
        },
        {
            "bufferView" : 29,
            "mimeType" : "image/png",
            "name" : "Eggpack"
        }
    ],
    "accessors" : [
        {
            "bufferView" : 0,
            "componentType" : 5126,
            "count" : 168,
            "max" : [
                0.07721226662397385,
                0.1312062293291092,
                0.07725908607244492
            ],
            "min" : [
                -0.07694520056247711,
                -0.07315598428249359,
                -0.07725908607244492
            ],
            "type" : "VEC3"
        },
        {
            "bufferView" : 1,
            "componentType" : 5126,
            "count" : 168,
            "type" : "VEC3"
        },
        {
            "bufferView" : 2,
            "componentType" : 5126,
            "count" : 168,
            "type" : "VEC2"
        },
        {
            "bufferView" : 3,
            "componentType" : 5123,
            "count" : 168,
            "type" : "SCALAR"
        },
        {
            "bufferView" : 5,
            "componentType" : 5126,
            "count" : 168,
            "max" : [
                0.07719872891902924,
                0.13120503723621368,
                0.07727336883544922
            ],
            "min" : [
                -0.07693170756101608,
                -0.07315531373023987,
                -0.07727336883544922
            ],
            "type" : "VEC3"
        },
        {
            "bufferView" : 6,
            "componentType" : 5126,
            "count" : 168,
            "type" : "VEC3"
        },
        {
            "bufferView" : 7,
            "componentType" : 5126,
            "count" : 168,
            "type" : "VEC2"
        },
        {
            "bufferView" : 8,
            "componentType" : 5123,
            "count" : 168,
            "type" : "SCALAR"
        },
        {
            "bufferView" : 9,
            "componentType" : 5126,
            "count" : 168,
            "max" : [
                0.07723072171211243,
                0.1311756819486618,
                0.07725925743579865
            ],
            "min" : [
                -0.07696358859539032,
                -0.07313895225524902,
                -0.07725925743579865
            ],
            "type" : "VEC3"
        },
        {
            "bufferView" : 10,
            "componentType" : 5126,
            "count" : 168,
            "type" : "VEC3"
        },
        {
            "bufferView" : 11,
            "componentType" : 5126,
            "count" : 168,
            "type" : "VEC2"
        },
        {
            "bufferView" : 12,
            "componentType" : 5123,
            "count" : 168,
            "type" : "SCALAR"
        },
        {
            "bufferView" : 13,
            "componentType" : 5126,
            "count" : 168,
            "max" : [
                0.07587685436010361,
                0.13117602467536926,
                0.07726587355136871
            ],
            "min" : [
                -0.07695680856704712,
                -0.07293261587619781,
                -0.07726587355136871
            ],
            "type" : "VEC3"
        },
        {
            "bufferView" : 14,
            "componentType" : 5126,
            "count" : 168,
            "type" : "VEC3"
        },
        {
            "bufferView" : 15,
            "componentType" : 5126,
            "count" : 168,
            "type" : "VEC2"
        },
        {
            "bufferView" : 16,
            "componentType" : 5123,
            "count" : 168,
            "type" : "SCALAR"
        },
        {
            "bufferView" : 17,
            "componentType" : 5126,
            "count" : 168,
            "max" : [
                0.07721485942602158,
                0.13118098676204681,
                0.07727192342281342
            ],
            "min" : [
                -0.0763663649559021,
                -0.0731419026851654,
                -0.07727192342281342
            ],
            "type" : "VEC3"
        },
        {
            "bufferView" : 18,
            "componentType" : 5126,
            "count" : 168,
            "type" : "VEC3"
        },
        {
            "bufferView" : 19,
            "componentType" : 5126,
            "count" : 168,
            "type" : "VEC2"
        },
        {
            "bufferView" : 20,
            "componentType" : 5123,
            "count" : 168,
            "type" : "SCALAR"
        },
        {
            "bufferView" : 21,
            "componentType" : 5126,
            "count" : 168,
            "max" : [
                0.0772208645939827,
                0.131165012717247,
                0.07706345617771149
            ],
            "min" : [
                -0.07695376873016357,
                -0.07313299924135208,
                -0.07727563381195068
            ],
            "type" : "VEC3"
        },
        {
            "bufferView" : 22,
            "componentType" : 5126,
            "count" : 168,
            "type" : "VEC3"
        },
        {
            "bufferView" : 23,
            "componentType" : 5126,
            "count" : 168,
            "type" : "VEC2"
        },
        {
            "bufferView" : 24,
            "componentType" : 5123,
            "count" : 168,
            "type" : "SCALAR"
        },
        {
            "bufferView" : 25,
            "componentType" : 5126,
            "count" : 494,
            "max" : [
                0.3518027067184448,
                0.08709634095430374,
                0.24352021515369415
            ],
            "min" : [
                -0.35078033804893494,
                -0.012903661467134953,
                -0.24352021515369415
            ],
            "type" : "VEC3"
        },
        {
            "bufferView" : 26,
            "componentType" : 5126,
            "count" : 494,
            "type" : "VEC3"
        },
        {
            "bufferView" : 27,
            "componentType" : 5126,
            "count" : 494,
            "type" : "VEC2"
        },
        {
            "bufferView" : 28,
            "componentType" : 5123,
            "count" : 756,
            "type" : "SCALAR"
        }
    ],
    "bufferViews" : [
        {
            "buffer" : 0,
            "byteLength" : 2016,
            "byteOffset" : 0
        },
        {
            "buffer" : 0,
            "byteLength" : 2016,
            "byteOffset" : 2016
        },
        {
            "buffer" : 0,
            "byteLength" : 1344,
            "byteOffset" : 4032
        },
        {
            "buffer" : 0,
            "byteLength" : 336,
            "byteOffset" : 5376
        },
        {
            "buffer" : 0,
            "byteLength" : 398069,
            "byteOffset" : 5712
        },
        {
            "buffer" : 0,
            "byteLength" : 2016,
            "byteOffset" : 403784
        },
        {
            "buffer" : 0,
            "byteLength" : 2016,
            "byteOffset" : 405800
        },
        {
            "buffer" : 0,
            "byteLength" : 1344,
            "byteOffset" : 407816
        },
        {
            "buffer" : 0,
            "byteLength" : 336,
            "byteOffset" : 409160
        },
        {
            "buffer" : 0,
            "byteLength" : 2016,
            "byteOffset" : 409496
        },
        {
            "buffer" : 0,
            "byteLength" : 2016,
            "byteOffset" : 411512
        },
        {
            "buffer" : 0,
            "byteLength" : 1344,
            "byteOffset" : 413528
        },
        {
            "buffer" : 0,
            "byteLength" : 336,
            "byteOffset" : 414872
        },
        {
            "buffer" : 0,
            "byteLength" : 2016,
            "byteOffset" : 415208
        },
        {
            "buffer" : 0,
            "byteLength" : 2016,
            "byteOffset" : 417224
        },
        {
            "buffer" : 0,
            "byteLength" : 1344,
            "byteOffset" : 419240
        },
        {
            "buffer" : 0,
            "byteLength" : 336,
            "byteOffset" : 420584
        },
        {
            "buffer" : 0,
            "byteLength" : 2016,
            "byteOffset" : 420920
        },
        {
            "buffer" : 0,
            "byteLength" : 2016,
            "byteOffset" : 422936
        },
        {
            "buffer" : 0,
            "byteLength" : 1344,
            "byteOffset" : 424952
        },
        {
            "buffer" : 0,
            "byteLength" : 336,
            "byteOffset" : 426296
        },
        {
            "buffer" : 0,
            "byteLength" : 2016,
            "byteOffset" : 426632
        },
        {
            "buffer" : 0,
            "byteLength" : 2016,
            "byteOffset" : 428648
        },
        {
            "buffer" : 0,
            "byteLength" : 1344,
            "byteOffset" : 430664
        },
        {
            "buffer" : 0,
            "byteLength" : 336,
            "byteOffset" : 432008
        },
        {
            "buffer" : 0,
            "byteLength" : 5928,
            "byteOffset" : 432344
        },
        {
            "buffer" : 0,
            "byteLength" : 5928,
            "byteOffset" : 438272
        },
        {
            "buffer" : 0,
            "byteLength" : 3952,
            "byteOffset" : 444200
        },
        {
            "buffer" : 0,
            "byteLength" : 1512,
            "byteOffset" : 448152
        },
        {
            "buffer" : 0,
            "byteLength" : 851264,
            "byteOffset" : 449664
        }
    ],
    "samplers" : [
        {
            "magFilter" : 9729,
            "minFilter" : 9986
        }
    ],
    "buffers" : [
        {
            "byteLength" : 1300928,
            "uri" : "data:application/octet-stream;base64,"
        }
    ]
}
