{
    "asset" : {
        "generator" : "Khronos glTF Blender I/O v1.4.40",
        "version" : "2.0"
    },
    "scene" : 0,
    "scenes" : [
        {
            "name" : "Scene",
            "nodes" : [
                8
            ]
        }
    ],
    "nodes" : [
        {
            "mesh" : 0,
            "name" : "SofaBack",
            "translation" : [
                0,
                0.3682180345058441,
                -0.6437044739723206
            ]
        },
        {
            "mesh" : 1,
            "name" : "SofaCushion1",
            "translation" : [
                -0.7480579018592834,
                0.3152930736541748,
                0
            ]
        },
        {
            "mesh" : 2,
            "name" : "SofaCushion2",
            "translation" : [
                0.005735764745622873,
                0.3152930736541748,
                0
            ]
        },
        {
            "mesh" : 3,
            "name" : "SofaCushion3",
            "translation" : [
                0.7652104496955872,
                0.3152930736541748,
                0
            ]
        },
        {
            "mesh" : 4,
            "name" : "SofaCushion4",
            "translation" : [
                0.7786484360694885,
                0.820358157157898,
                -0.48929643630981445
            ]
        },
        {
            "mesh" : 5,
            "name" : "SofaCushion5",
            "translation" : [
                0.0019446995574980974,
                0.820358157157898,
                -0.4892963767051697
            ]
        },
        {
            "mesh" : 6,
            "name" : "SofaCushion7",
            "translation" : [
                -0.7576596736907959,
                0.820358157157898,
                -0.4892963171005249
            ]
        },
        {
            "mesh" : 7,
            "name" : "SofaSideRest",
            "translation" : [
                1.239241600036621,
                0.30300894379615784,
                0
            ]
        },
        {
            "children" : [
                0,
                1,
                2,
                3,
                4,
                5,
                6,
                7
            ],
            "mesh" : 8,
            "name" : "SofaBase",
            "translation" : [
                0,
                0.01823049783706665,
                0
            ]
        }
    ],
    "materials" : [
        {
            "doubleSided" : true,
            "name" : "SofaBack",
            "pbrMetallicRoughness" : {
                "baseColorTexture" : {
                    "index" : 0,
                    "texCoord" : 0
                },
                "metallicFactor" : 0,
                "roughnessFactor" : 0.8330000042915344
            }
        },
        {
            "doubleSided" : true,
            "name" : "SofaCushion",
            "pbrMetallicRoughness" : {
                "baseColorTexture" : {
                    "index" : 1,
                    "texCoord" : 0
                },
                "metallicFactor" : 0,
                "roughnessFactor" : 0.8333333730697632
            }
        },
        {
            "doubleSided" : true,
            "name" : "SofaSideRest",
            "pbrMetallicRoughness" : {
                "baseColorTexture" : {
                    "index" : 2,
                    "texCoord" : 0
                },
                "metallicFactor" : 0,
                "roughnessFactor" : 0.8330000042915344
            }
        },
        {
            "doubleSided" : true,
            "name" : "SofaBase",
            "pbrMetallicRoughness" : {
                "baseColorTexture" : {
                    "index" : 3,
                    "texCoord" : 0
                },
                "metallicFactor" : 0,
                "roughnessFactor" : 0.8330000042915344
            }
        }
    ],
    "meshes" : [
        {
            "name" : "Cube.006",
            "primitives" : [
                {
                    "attributes" : {
                        "POSITION" : 0,
                        "NORMAL" : 1,
                        "TEXCOORD_0" : 2
                    },
                    "indices" : 3,
                    "material" : 0
                }
            ]
        },
        {
            "name" : "Cube.003",
            "primitives" : [
                {
                    "attributes" : {
                        "POSITION" : 4,
                        "NORMAL" : 5,
                        "TEXCOORD_0" : 6
                    },
                    "indices" : 7,
                    "material" : 1
                }
            ]
        },
        {
            "name" : "Cube.004",
            "primitives" : [
                {
                    "attributes" : {
                        "POSITION" : 8,
                        "NORMAL" : 9,
                        "TEXCOORD_0" : 10
                    },
                    "indices" : 7,
                    "material" : 1
                }
            ]
        },
        {
            "name" : "Cube.005",
            "primitives" : [
                {
                    "attributes" : {
                        "POSITION" : 11,
                        "NORMAL" : 12,
                        "TEXCOORD_0" : 13
                    },
                    "indices" : 7,
                    "material" : 1
                }
            ]
        },
        {
            "name" : "Cube.007",
            "primitives" : [
                {
                    "attributes" : {
                        "POSITION" : 14,
                        "NORMAL" : 15,
                        "TEXCOORD_0" : 16
                    },
                    "indices" : 17,
                    "material" : 1
                }
            ]
        },
        {
            "name" : "Cube.008",
            "primitives" : [
                {
                    "attributes" : {
                        "POSITION" : 18,
                        "NORMAL" : 19,
                        "TEXCOORD_0" : 20
                    },
                    "indices" : 17,
                    "material" : 1
                }
            ]
        },
        {
            "name" : "Cube.009",
            "primitives" : [
                {
                    "attributes" : {
                        "POSITION" : 21,
                        "NORMAL" : 22,
                        "TEXCOORD_0" : 23
                    },
                    "indices" : 17,
                    "material" : 1
                }
            ]
        },
        {
            "name" : "Cube.002",
            "primitives" : [
                {
                    "attributes" : {
                        "POSITION" : 24,
                        "NORMAL" : 25,
                        "TEXCOORD_0" : 26
                    },
                    "indices" : 27,
                    "material" : 2
                }
            ]
        },
        {
            "name" : "Cube.001",
            "primitives" : [
                {
                    "attributes" : {
                        "POSITION" : 28,
                        "NORMAL" : 29,
                        "TEXCOORD_0" : 30
                    },
                    "indices" : 31,
                    "material" : 3
                }
            ]
        }
    ],
    "textures" : [
        {
            "sampler" : 0,
            "source" : 0
        },
        {
            "sampler" : 0,
            "source" : 1
        },
        {
            "sampler" : 0,
            "source" : 2
        },
        {
            "sampler" : 0,
            "source" : 3
        }
    ],
    "images" : [
        {
            "bufferView" : 4,
            "mimeType" : "image/png",
            "name" : "SofaBack"
        },
        {
            "bufferView" : 9,
            "mimeType" : "image/png",
            "name" : "SofaCushion"
        },
        {
            "bufferView" : 30,
            "mimeType" : "image/png",
            "name" : "SofaSideRest"
        },
        {
            "bufferView" : 35,
            "mimeType" : "image/png",
            "name" : "SofaBase"
        }
    ],
    "accessors" : [
        {
            "bufferView" : 0,
            "componentType" : 5126,
            "count" : 24,
            "max" : [
                1.1128513813018799,
                0.6566545963287354,
                0.15756185352802277
            ],
            "min" : [
                -1.1128513813018799,
                -0.3831970691680908,
                -0.15756185352802277
            ],
            "type" : "VEC3"
        },
        {
            "bufferView" : 1,
            "componentType" : 5126,
            "count" : 24,
            "type" : "VEC3"
        },
        {
            "bufferView" : 2,
            "componentType" : 5126,
            "count" : 24,
            "type" : "VEC2"
        },
        {
            "bufferView" : 3,
            "componentType" : 5123,
            "count" : 36,
            "type" : "SCALAR"
        },
        {
            "bufferView" : 5,
            "componentType" : 5126,
            "count" : 30,
            "max" : [
                0.37658995389938354,
                0.29429054260253906,
                0.5199257731437683
            ],
            "min" : [
                -0.37658995389938354,
                -0.020833000540733337,
                -0.5199257731437683
            ],
            "type" : "VEC3"
        },
        {
            "bufferView" : 6,
            "componentType" : 5126,
            "count" : 30,
            "type" : "VEC3"
        },
        {
            "bufferView" : 7,
            "componentType" : 5126,
            "count" : 30,
            "type" : "VEC2"
        },
        {
            "bufferView" : 8,
            "componentType" : 5123,
            "count" : 48,
            "type" : "SCALAR"
        },
        {
            "bufferView" : 10,
            "componentType" : 5126,
            "count" : 30,
            "max" : [
                0.3854559361934662,
                0.29429054260253906,
                0.5199257731437683
            ],
            "min" : [
                -0.3854559361934662,
                -0.020833000540733337,
                -0.5199257731437683
            ],
            "type" : "VEC3"
        },
        {
            "bufferView" : 11,
            "componentType" : 5126,
            "count" : 30,
            "type" : "VEC3"
        },
        {
            "bufferView" : 12,
            "componentType" : 5126,
            "count" : 30,
            "type" : "VEC2"
        },
        {
            "bufferView" : 13,
            "componentType" : 5126,
            "count" : 30,
            "max" : [
                0.3624604642391205,
                0.29429054260253906,
                0.5199257731437683
            ],
            "min" : [
                -0.3624604642391205,
                -0.020833000540733337,
                -0.5199257731437683
            ],
            "type" : "VEC3"
        },
        {
            "bufferView" : 14,
            "componentType" : 5126,
            "count" : 30,
            "type" : "VEC3"
        },
        {
            "bufferView" : 15,
            "componentType" : 5126,
            "count" : 30,
            "type" : "VEC2"
        },
        {
            "bufferView" : 16,
            "componentType" : 5126,
            "count" : 30,
            "max" : [
                0.38232359290122986,
                0.5005011558532715,
                0.15756191313266754
            ],
            "min" : [
                -0.38232359290122986,
                -0.22704365849494934,
                -0.15756191313266754
            ],
            "type" : "VEC3"
        },
        {
            "bufferView" : 17,
            "componentType" : 5126,
            "count" : 30,
            "type" : "VEC3"
        },
        {
            "bufferView" : 18,
            "componentType" : 5126,
            "count" : 30,
            "type" : "VEC2"
        },
        {
            "bufferView" : 19,
            "componentType" : 5123,
            "count" : 48,
            "type" : "SCALAR"
        },
        {
            "bufferView" : 20,
            "componentType" : 5126,
            "count" : 30,
            "max" : [
                0.38545599579811096,
                0.5005012154579163,
                0.15756191313266754
            ],
            "min" : [
                -0.38545599579811096,
                -0.22704368829727173,
                -0.15756191313266754
            ],
            "type" : "VEC3"
        },
        {
            "bufferView" : 21,
            "componentType" : 5126,
            "count" : 30,
            "type" : "VEC3"
        },
        {
            "bufferView" : 22,
            "componentType" : 5126,
            "count" : 30,
            "type" : "VEC2"
        },
        {
            "bufferView" : 23,
            "componentType" : 5126,
            "count" : 30,
            "max" : [
                0.36797896027565,
                0.5005011558532715,
                0.15756188333034515
            ],
            "min" : [
                -0.36797896027565,
                -0.22704365849494934,
                -0.15756188333034515
            ],
            "type" : "VEC3"
        },
        {
            "bufferView" : 24,
            "componentType" : 5126,
            "count" : 30,
            "type" : "VEC3"
        },
        {
            "bufferView" : 25,
            "componentType" : 5126,
            "count" : 30,
            "type" : "VEC2"
        },
        {
            "bufferView" : 26,
            "componentType" : 5126,
            "count" : 76,
            "max" : [
                0.11963013559579849,
                0.5939719080924988,
                0.5199257731437683
            ],
            "min" : [
                -2.5981132984161377,
                -0.32051438093185425,
                -0.5199257731437683
            ],
            "type" : "VEC3"
        },
        {
            "bufferView" : 27,
            "componentType" : 5126,
            "count" : 76,
            "type" : "VEC3"
        },
        {
            "bufferView" : 28,
            "componentType" : 5126,
            "count" : 76,
            "type" : "VEC2"
        },
        {
            "bufferView" : 29,
            "componentType" : 5123,
            "count" : 120,
            "type" : "SCALAR"
        },
        {
            "bufferView" : 31,
            "componentType" : 5126,
            "count" : 24,
            "max" : [
                1.1259605884552002,
                0.29429054260253906,
                0.5199257731437683
            ],
            "min" : [
                -1.1259605884552002,
                -0.020833000540733337,
                -0.5199257731437683
            ],
            "type" : "VEC3"
        },
        {
            "bufferView" : 32,
            "componentType" : 5126,
            "count" : 24,
            "type" : "VEC3"
        },
        {
            "bufferView" : 33,
            "componentType" : 5126,
            "count" : 24,
            "type" : "VEC2"
        },
        {
            "bufferView" : 34,
            "componentType" : 5123,
            "count" : 36,
            "type" : "SCALAR"
        }
    ],
    "bufferViews" : [
        {
            "buffer" : 0,
            "byteLength" : 288,
            "byteOffset" : 0
        },
        {
            "buffer" : 0,
            "byteLength" : 288,
            "byteOffset" : 288
        },
        {
            "buffer" : 0,
            "byteLength" : 192,
            "byteOffset" : 576
        },
        {
            "buffer" : 0,
            "byteLength" : 72,
            "byteOffset" : 768
        },
        {
            "buffer" : 0,
            "byteLength" : 475717,
            "byteOffset" : 840
        },
        {
            "buffer" : 0,
            "byteLength" : 360,
            "byteOffset" : 476560
        },
        {
            "buffer" : 0,
            "byteLength" : 360,
            "byteOffset" : 476920
        },
        {
            "buffer" : 0,
            "byteLength" : 240,
            "byteOffset" : 477280
        },
        {
            "buffer" : 0,
            "byteLength" : 96,
            "byteOffset" : 477520
        },
        {
            "buffer" : 0,
            "byteLength" : 337572,
            "byteOffset" : 477616
        },
        {
            "buffer" : 0,
            "byteLength" : 360,
            "byteOffset" : 815188
        },
        {
            "buffer" : 0,
            "byteLength" : 360,
            "byteOffset" : 815548
        },
        {
            "buffer" : 0,
            "byteLength" : 240,
            "byteOffset" : 815908
        },
        {
            "buffer" : 0,
            "byteLength" : 360,
            "byteOffset" : 816148
        },
        {
            "buffer" : 0,
            "byteLength" : 360,
            "byteOffset" : 816508
        },
        {
            "buffer" : 0,
            "byteLength" : 240,
            "byteOffset" : 816868
        },
        {
            "buffer" : 0,
            "byteLength" : 360,
            "byteOffset" : 817108
        },
        {
            "buffer" : 0,
            "byteLength" : 360,
            "byteOffset" : 817468
        },
        {
            "buffer" : 0,
            "byteLength" : 240,
            "byteOffset" : 817828
        },
        {
            "buffer" : 0,
            "byteLength" : 96,
            "byteOffset" : 818068
        },
        {
            "buffer" : 0,
            "byteLength" : 360,
            "byteOffset" : 818164
        },
        {
            "buffer" : 0,
            "byteLength" : 360,
            "byteOffset" : 818524
        },
        {
            "buffer" : 0,
            "byteLength" : 240,
            "byteOffset" : 818884
        },
        {
            "buffer" : 0,
            "byteLength" : 360,
            "byteOffset" : 819124
        },
        {
            "buffer" : 0,
            "byteLength" : 360,
            "byteOffset" : 819484
        },
        {
            "buffer" : 0,
            "byteLength" : 240,
            "byteOffset" : 819844
        },
        {
            "buffer" : 0,
            "byteLength" : 912,
            "byteOffset" : 820084
        },
        {
            "buffer" : 0,
            "byteLength" : 912,
            "byteOffset" : 820996
        },
        {
            "buffer" : 0,
            "byteLength" : 608,
            "byteOffset" : 821908
        },
        {
            "buffer" : 0,
            "byteLength" : 240,
            "byteOffset" : 822516
        },
        {
            "buffer" : 0,
            "byteLength" : 290530,
            "byteOffset" : 822756
        },
        {
            "buffer" : 0,
            "byteLength" : 288,
            "byteOffset" : 1113288
        },
        {
            "buffer" : 0,
            "byteLength" : 288,
            "byteOffset" : 1113576
        },
        {
            "buffer" : 0,
            "byteLength" : 192,
            "byteOffset" : 1113864
        },
        {
            "buffer" : 0,
            "byteLength" : 72,
            "byteOffset" : 1114056
        },
        {
            "buffer" : 0,
            "byteLength" : 90127,
            "byteOffset" : 1114128
        }
    ],
    "samplers" : [
        {
            "magFilter" : 9729,
            "minFilter" : 9986
        }
    ],
    "buffers" : [
        {
            "byteLength" : 1204256,
            "uri" : "data:application/octet-stream;base64,"
        }
    ]
}
