{
    "asset" : {
        "generator" : "Khronos glTF Blender I/O v1.4.40",
        "version" : "2.0"
    },
    "scene" : 0,
    "scenes" : [
        {
            "name" : "Scene",
            "nodes" : [
                4
            ]
        }
    ],
    "nodes" : [
        {
            "mesh" : 0,
            "name" : "TableStand1",
            "translation" : [
                -1.2103546857833862,
                -0.8621478080749512,
                0.49427226185798645
            ]
        },
        {
            "mesh" : 1,
            "name" : "TableStand2",
            "translation" : [
                1.221126675605774,
                -0.8621478080749512,
                0.49427226185798645
            ]
        },
        {
            "mesh" : 2,
            "name" : "TableStand3",
            "translation" : [
                -1.2103546857833862,
                -0.8621478080749512,
                -0.5079614520072937
            ]
        },
        {
            "mesh" : 3,
            "name" : "TableStand4",
            "translation" : [
                1.221126675605774,
                -0.8621478080749512,
                -0.5079614520072937
            ]
        },
        {
            "children" : [
                0,
                1,
                2,
                3
            ],
            "mesh" : 4,
            "name" : "Table",
            "translation" : [
                0,
                0.8649404644966125,
                0
            ]
        }
    ],
    "materials" : [
        {
            "doubleSided" : true,
            "name" : "TableStand",
            "pbrMetallicRoughness" : {
                "baseColorTexture" : {
                    "index" : 0,
                    "texCoord" : 0
                },
                "metallicFactor" : 0,
                "roughnessFactor" : 0.783687949180603
            }
        },
        {
            "doubleSided" : true,
            "name" : "Table",
            "pbrMetallicRoughness" : {
                "baseColorTexture" : {
                    "index" : 1,
                    "texCoord" : 0
                },
                "metallicFactor" : 0,
                "roughnessFactor" : 0.783687949180603
            }
        }
    ],
    "meshes" : [
        {
            "name" : "Cube.002",
            "primitives" : [
                {
                    "attributes" : {
                        "POSITION" : 0,
                        "NORMAL" : 1,
                        "TEXCOORD_0" : 2
                    },
                    "indices" : 3,
                    "material" : 0
                }
            ]
        },
        {
            "name" : "Cube.006",
            "primitives" : [
                {
                    "attributes" : {
                        "POSITION" : 4,
                        "NORMAL" : 5,
                        "TEXCOORD_0" : 6
                    },
                    "indices" : 7,
                    "material" : 0
                }
            ]
        },
        {
            "name" : "Cube.004",
            "primitives" : [
                {
                    "attributes" : {
                        "POSITION" : 8,
                        "NORMAL" : 9,
                        "TEXCOORD_0" : 10
                    },
                    "indices" : 3,
                    "material" : 0
                }
            ]
        },
        {
            "name" : "Cube.007",
            "primitives" : [
                {
                    "attributes" : {
                        "POSITION" : 11,
                        "NORMAL" : 12,
                        "TEXCOORD_0" : 13
                    },
                    "indices" : 7,
                    "material" : 0
                }
            ]
        },
        {
            "name" : "Cube.001",
            "primitives" : [
                {
                    "attributes" : {
                        "POSITION" : 14,
                        "NORMAL" : 15,
                        "TEXCOORD_0" : 16
                    },
                    "indices" : 3,
                    "material" : 1
                }
            ]
        }
    ],
    "textures" : [
        {
            "sampler" : 0,
            "source" : 0
        },
        {
            "sampler" : 0,
            "source" : 0
        }
    ],
    "images" : [
        {
            "bufferView" : 4,
            "mimeType" : "image/png",
            "name" : "Table"
        }
    ],
    "accessors" : [
        {
            "bufferView" : 0,
            "componentType" : 5126,
            "count" : 24,
            "max" : [
                0.16976012289524078,
                0.8640806078910828,
                0.042691003531217575
            ],
            "min" : [
                -0.042691003531217575,
                -0.007023913320153952,
                -0.27948400378227234
            ],
            "type" : "VEC3"
        },
        {
            "bufferView" : 1,
            "componentType" : 5126,
            "count" : 24,
            "type" : "VEC3"
        },
        {
            "bufferView" : 2,
            "componentType" : 5126,
            "count" : 24,
            "type" : "VEC2"
        },
        {
            "bufferView" : 3,
            "componentType" : 5123,
            "count" : 36,
            "type" : "SCALAR"
        },
        {
            "bufferView" : 5,
            "componentType" : 5126,
            "count" : 24,
            "max" : [
                0.042691007256507874,
                0.8640807271003723,
                0.042691007256507874
            ],
            "min" : [
                -0.16976015269756317,
                -0.007023914251476526,
                -0.2794840335845947
            ],
            "type" : "VEC3"
        },
        {
            "bufferView" : 6,
            "componentType" : 5126,
            "count" : 24,
            "type" : "VEC3"
        },
        {
            "bufferView" : 7,
            "componentType" : 5126,
            "count" : 24,
            "type" : "VEC2"
        },
        {
            "bufferView" : 8,
            "componentType" : 5123,
            "count" : 36,
            "type" : "SCALAR"
        },
        {
            "bufferView" : 9,
            "componentType" : 5126,
            "count" : 24,
            "max" : [
                0.16976012289524078,
                0.8640806078910828,
                0.32846832275390625
            ],
            "min" : [
                -0.042691003531217575,
                -0.007023913320153952,
                -0.042691003531217575
            ],
            "type" : "VEC3"
        },
        {
            "bufferView" : 10,
            "componentType" : 5126,
            "count" : 24,
            "type" : "VEC3"
        },
        {
            "bufferView" : 11,
            "componentType" : 5126,
            "count" : 24,
            "type" : "VEC2"
        },
        {
            "bufferView" : 12,
            "componentType" : 5126,
            "count" : 24,
            "max" : [
                0.042691007256507874,
                0.8640807271003723,
                0.32846835255622864
            ],
            "min" : [
                -0.16976015269756317,
                -0.007023914251476526,
                -0.042691007256507874
            ],
            "type" : "VEC3"
        },
        {
            "bufferView" : 13,
            "componentType" : 5126,
            "count" : 24,
            "type" : "VEC3"
        },
        {
            "bufferView" : 14,
            "componentType" : 5126,
            "count" : 24,
            "type" : "VEC2"
        },
        {
            "bufferView" : 15,
            "componentType" : 5126,
            "count" : 24,
            "max" : [
                1.3151779174804688,
                0.11899330466985703,
                0.5933766961097717
            ],
            "min" : [
                -1.3151779174804688,
                -0.003619173774495721,
                -0.5933766961097717
            ],
            "type" : "VEC3"
        },
        {
            "bufferView" : 16,
            "componentType" : 5126,
            "count" : 24,
            "type" : "VEC3"
        },
        {
            "bufferView" : 17,
            "componentType" : 5126,
            "count" : 24,
            "type" : "VEC2"
        }
    ],
    "bufferViews" : [
        {
            "buffer" : 0,
            "byteLength" : 288,
            "byteOffset" : 0
        },
        {
            "buffer" : 0,
            "byteLength" : 288,
            "byteOffset" : 288
        },
        {
            "buffer" : 0,
            "byteLength" : 192,
            "byteOffset" : 576
        },
        {
            "buffer" : 0,
            "byteLength" : 72,
            "byteOffset" : 768
        },
        {
            "buffer" : 0,
            "byteLength" : 197349,
            "byteOffset" : 840
        },
        {
            "buffer" : 0,
            "byteLength" : 288,
            "byteOffset" : 198192
        },
        {
            "buffer" : 0,
            "byteLength" : 288,
            "byteOffset" : 198480
        },
        {
            "buffer" : 0,
            "byteLength" : 192,
            "byteOffset" : 198768
        },
        {
            "buffer" : 0,
            "byteLength" : 72,
            "byteOffset" : 198960
        },
        {
            "buffer" : 0,
            "byteLength" : 288,
            "byteOffset" : 199032
        },
        {
            "buffer" : 0,
            "byteLength" : 288,
            "byteOffset" : 199320
        },
        {
            "buffer" : 0,
            "byteLength" : 192,
            "byteOffset" : 199608
        },
        {
            "buffer" : 0,
            "byteLength" : 288,
            "byteOffset" : 199800
        },
        {
            "buffer" : 0,
            "byteLength" : 288,
            "byteOffset" : 200088
        },
        {
            "buffer" : 0,
            "byteLength" : 192,
            "byteOffset" : 200376
        },
        {
            "buffer" : 0,
            "byteLength" : 288,
            "byteOffset" : 200568
        },
        {
            "buffer" : 0,
            "byteLength" : 288,
            "byteOffset" : 200856
        },
        {
            "buffer" : 0,
            "byteLength" : 192,
            "byteOffset" : 201144
        }
    ],
    "samplers" : [
        {
            "magFilter" : 9729,
            "minFilter" : 9986
        }
    ],
    "buffers" : [
        {
            "byteLength" : 201336,
            "uri" : "data:application/octet-stream;base64,"
        }
    ]
}
