{
    "asset" : {
        "generator" : "Khronos glTF Blender I/O v1.4.40",
        "version" : "2.0"
    },
    "scene" : 0,
    "scenes" : [
        {
            "name" : "Scene",
            "nodes" : [
                0
            ]
        }
    ],
    "nodes" : [
        {
            "mesh" : 0,
            "name" : "Torus"
        }
    ],
    "meshes" : [
        {
            "name" : "Torus",
            "primitives" : [
                {
                    "attributes" : {
                        "POSITION" : 0,
                        "NORMAL" : 1,
                        "TEXCOORD_0" : 2
                    },
                    "indices" : 3
                }
            ]
        }
    ],
    "accessors" : [
        {
            "bufferView" : 0,
            "componentType" : 5126,
            "count" : 393,
            "max" : [
                1.174615502357483,
                0.25,
                1.1746156215667725
            ],
            "min" : [
                -1.274423360824585,
                -0.25,
                -3.868147850036621
            ],
            "type" : "VEC3"
        },
        {
            "bufferView" : 1,
            "componentType" : 5126,
            "count" : 393,
            "type" : "VEC3"
        },
        {
            "bufferView" : 2,
            "componentType" : 5126,
            "count" : 393,
            "type" : "VEC2"
        },
        {
            "bufferView" : 3,
            "componentType" : 5123,
            "count" : 618,
            "type" : "SCALAR"
        }
    ],
    "bufferViews" : [
        {
            "buffer" : 0,
            "byteLength" : 4716,
            "byteOffset" : 0
        },
        {
            "buffer" : 0,
            "byteLength" : 4716,
            "byteOffset" : 4716
        },
        {
            "buffer" : 0,
            "byteLength" : 3144,
            "byteOffset" : 9432
        },
        {
            "buffer" : 0,
            "byteLength" : 1236,
            "byteOffset" : 12576
        }
    ],
    "buffers" : [
        {
            "byteLength" : 13812,
            "uri" : "data:application/octet-stream;base64,"
        }
    ]
}
