{
    "asset" : {
        "generator" : "Khronos glTF Blender I/O v1.4.40",
        "version" : "2.0"
    },
    "scene" : 0,
    "scenes" : [
        {
            "name" : "Scene",
            "nodes" : [
                3
            ]
        }
    ],
    "nodes" : [
        {
            "mesh" : 0,
            "name" : "Tomato Leaf1",
            "rotation" : [
                0.452075332403183,
                -0.024255961179733276,
                -0.010593073442578316,
                0.89158695936203
            ],
            "translation" : [
                0.0023508728481829166,
                0.06117596477270126,
                -0.00798357930034399
            ]
        },
        {
            "mesh" : 1,
            "name" : "Tomato Leaf2",
            "rotation" : [
                0.1653618961572647,
                0.8062276840209961,
                -0.3361831307411194,
                0.45785728096961975
            ],
            "translation" : [
                -0.005114235449582338,
                0.06144413352012634,
                0.00275369337759912
            ]
        },
        {
            "mesh" : 2,
            "name" : "Tomato Leaf3",
            "rotation" : [
                -0.07836221903562546,
                0.8635678291320801,
                -0.2686605751514435,
                -0.419441819190979
            ],
            "translation" : [
                0.007647180464118719,
                0.059280361980199814,
                0.0037500234320759773
            ]
        },
        {
            "children" : [
                0,
                1,
                2
            ],
            "mesh" : 3,
            "name" : "Tomato"
        }
    ],
    "materials" : [
        {
            "doubleSided" : true,
            "name" : "TomatoLeaf1",
            "pbrMetallicRoughness" : {
                "baseColorTexture" : {
                    "index" : 0,
                    "texCoord" : 0
                },
                "metallicFactor" : 0,
                "roughnessFactor" : 0.8404254913330078
            }
        },
        {
            "doubleSided" : true,
            "name" : "Tomato",
            "pbrMetallicRoughness" : {
                "baseColorTexture" : {
                    "index" : 1,
                    "texCoord" : 0
                },
                "metallicFactor" : 0,
                "roughnessFactor" : 0.5
            }
        }
    ],
    "meshes" : [
        {
            "name" : "Plane",
            "primitives" : [
                {
                    "attributes" : {
                        "POSITION" : 0,
                        "NORMAL" : 1,
                        "TEXCOORD_0" : 2
                    },
                    "indices" : 3,
                    "material" : 0
                }
            ]
        },
        {
            "name" : "Plane.001",
            "primitives" : [
                {
                    "attributes" : {
                        "POSITION" : 4,
                        "NORMAL" : 5,
                        "TEXCOORD_0" : 6
                    },
                    "indices" : 3,
                    "material" : 0
                }
            ]
        },
        {
            "name" : "Plane.002",
            "primitives" : [
                {
                    "attributes" : {
                        "POSITION" : 7,
                        "NORMAL" : 8,
                        "TEXCOORD_0" : 9
                    },
                    "indices" : 3,
                    "material" : 0
                }
            ]
        },
        {
            "name" : "Icosphere",
            "primitives" : [
                {
                    "attributes" : {
                        "POSITION" : 10,
                        "NORMAL" : 11,
                        "TEXCOORD_0" : 12
                    },
                    "indices" : 13,
                    "material" : 1
                }
            ]
        }
    ],
    "textures" : [
        {
            "sampler" : 0,
            "source" : 0
        },
        {
            "sampler" : 0,
            "source" : 1
        }
    ],
    "images" : [
        {
            "bufferView" : 4,
            "mimeType" : "image/png",
            "name" : "Tomato Leaf"
        },
        {
            "bufferView" : 15,
            "mimeType" : "image/png",
            "name" : "Tomato"
        }
    ],
    "accessors" : [
        {
            "bufferView" : 0,
            "componentType" : 5126,
            "count" : 3,
            "max" : [
                0.007277166936546564,
                0,
                0.0073243738152086735
            ],
            "min" : [
                -0.007277166936546564,
                -7.076627617230713e-10,
                -0.023562178015708923
            ],
            "type" : "VEC3"
        },
        {
            "bufferView" : 1,
            "componentType" : 5126,
            "count" : 3,
            "type" : "VEC3"
        },
        {
            "bufferView" : 2,
            "componentType" : 5126,
            "count" : 3,
            "type" : "VEC2"
        },
        {
            "bufferView" : 3,
            "componentType" : 5123,
            "count" : 3,
            "type" : "SCALAR"
        },
        {
            "bufferView" : 5,
            "componentType" : 5126,
            "count" : 3,
            "max" : [
                0.007277194410562515,
                0,
                0.007312104571610689
            ],
            "min" : [
                -0.007277194410562515,
                -7.08850644848269e-10,
                -0.02352270856499672
            ],
            "type" : "VEC3"
        },
        {
            "bufferView" : 6,
            "componentType" : 5126,
            "count" : 3,
            "type" : "VEC3"
        },
        {
            "bufferView" : 7,
            "componentType" : 5126,
            "count" : 3,
            "type" : "VEC2"
        },
        {
            "bufferView" : 8,
            "componentType" : 5126,
            "count" : 3,
            "max" : [
                0.0072777243331074715,
                0,
                0.007297436241060495
            ],
            "min" : [
                -0.0072777243331074715,
                -7.102177179696412e-10,
                -0.023475520312786102
            ],
            "type" : "VEC3"
        },
        {
            "bufferView" : 9,
            "componentType" : 5126,
            "count" : 3,
            "type" : "VEC3"
        },
        {
            "bufferView" : 10,
            "componentType" : 5126,
            "count" : 3,
            "type" : "VEC2"
        },
        {
            "bufferView" : 11,
            "componentType" : 5126,
            "count" : 120,
            "max" : [
                0.03401196002960205,
                0.059216950088739395,
                0.032347291707992554
            ],
            "min" : [
                -0.03401196002960205,
                -0.000783050199970603,
                -0.032347291707992554
            ],
            "type" : "VEC3"
        },
        {
            "bufferView" : 12,
            "componentType" : 5126,
            "count" : 120,
            "type" : "VEC3"
        },
        {
            "bufferView" : 13,
            "componentType" : 5126,
            "count" : 120,
            "type" : "VEC2"
        },
        {
            "bufferView" : 14,
            "componentType" : 5123,
            "count" : 120,
            "type" : "SCALAR"
        }
    ],
    "bufferViews" : [
        {
            "buffer" : 0,
            "byteLength" : 36,
            "byteOffset" : 0
        },
        {
            "buffer" : 0,
            "byteLength" : 36,
            "byteOffset" : 36
        },
        {
            "buffer" : 0,
            "byteLength" : 24,
            "byteOffset" : 72
        },
        {
            "buffer" : 0,
            "byteLength" : 6,
            "byteOffset" : 96
        },
        {
            "buffer" : 0,
            "byteLength" : 448747,
            "byteOffset" : 104
        },
        {
            "buffer" : 0,
            "byteLength" : 36,
            "byteOffset" : 448852
        },
        {
            "buffer" : 0,
            "byteLength" : 36,
            "byteOffset" : 448888
        },
        {
            "buffer" : 0,
            "byteLength" : 24,
            "byteOffset" : 448924
        },
        {
            "buffer" : 0,
            "byteLength" : 36,
            "byteOffset" : 448948
        },
        {
            "buffer" : 0,
            "byteLength" : 36,
            "byteOffset" : 448984
        },
        {
            "buffer" : 0,
            "byteLength" : 24,
            "byteOffset" : 449020
        },
        {
            "buffer" : 0,
            "byteLength" : 1440,
            "byteOffset" : 449044
        },
        {
            "buffer" : 0,
            "byteLength" : 1440,
            "byteOffset" : 450484
        },
        {
            "buffer" : 0,
            "byteLength" : 960,
            "byteOffset" : 451924
        },
        {
            "buffer" : 0,
            "byteLength" : 240,
            "byteOffset" : 452884
        },
        {
            "buffer" : 0,
            "byteLength" : 251626,
            "byteOffset" : 453124
        }
    ],
    "samplers" : [
        {
            "magFilter" : 9729,
            "minFilter" : 9986
        }
    ],
    "buffers" : [
        {
            "byteLength" : 704752,
            "uri" : "data:application/octet-stream;base64,"
        }
    ]
}
