{
    "asset" : {
        "generator" : "Khronos glTF Blender I/O v1.4.40",
        "version" : "2.0"
    },
    "scene" : 0,
    "scenes" : [
        {
            "name" : "Scene",
            "nodes" : [
                0,
                1,
                2,
                3,
                4
            ]
        }
    ],
    "nodes" : [
        {
            "mesh" : 0,
            "name" : "FloorOutside",
            "translation" : [
                -0.12164252996444702,
                0.04971504211425781,
                28.790748596191406
            ]
        },
        {
            "mesh" : 1,
            "name" : "WallsOutside",
            "translation" : [
                8.513474464416504,
                5.963724136352539,
                19.60301399230957
            ]
        },
        {
            "mesh" : 2,
            "name" : "WallsOutside.001",
            "translation" : [
                -2.5637826919555664,
                7.362859725952148,
                12.49580192565918
            ]
        },
        {
            "mesh" : 3,
            "name" : "RoofOutside",
            "translation" : [
                -1.8917714357376099,
                10.43177604675293,
                23.101110458374023
            ]
        },
        {
            "mesh" : 4,
            "name" : "WallsOutside.002",
            "rotation" : [
                0.7071067690849304,
                0,
                0,
                0.7071068286895752
            ],
            "translation" : [
                -1.8103923797607422,
                11.517109870910645,
                49.864898681640625
            ]
        }
    ],
    "materials" : [
        {
            "doubleSided" : true,
            "name" : "Stair",
            "pbrMetallicRoughness" : {
                "baseColorTexture" : {
                    "index" : 0,
                    "texCoord" : 0
                },
                "metallicFactor" : 0,
                "roughnessFactor" : 0.5
            }
        },
        {
            "doubleSided" : true,
            "name" : "Walls",
            "pbrMetallicRoughness" : {
                "baseColorTexture" : {
                    "index" : 1,
                    "texCoord" : 0
                },
                "metallicFactor" : 0,
                "roughnessFactor" : 0.5
            }
        },
        {
            "doubleSided" : true,
            "name" : "Walls.001",
            "pbrMetallicRoughness" : {
                "baseColorTexture" : {
                    "index" : 2,
                    "texCoord" : 0
                },
                "metallicFactor" : 0,
                "roughnessFactor" : 0.5
            }
        }
    ],
    "meshes" : [
        {
            "name" : "Cube.003",
            "primitives" : [
                {
                    "attributes" : {
                        "POSITION" : 0,
                        "NORMAL" : 1,
                        "TEXCOORD_0" : 2
                    },
                    "indices" : 3,
                    "material" : 0
                }
            ]
        },
        {
            "name" : "Cube.004",
            "primitives" : [
                {
                    "attributes" : {
                        "POSITION" : 4,
                        "NORMAL" : 5,
                        "TEXCOORD_0" : 6
                    },
                    "indices" : 7,
                    "material" : 1
                }
            ]
        },
        {
            "name" : "Cube.005",
            "primitives" : [
                {
                    "attributes" : {
                        "POSITION" : 8,
                        "NORMAL" : 9,
                        "TEXCOORD_0" : 10
                    },
                    "indices" : 11,
                    "material" : 1
                }
            ]
        },
        {
            "name" : "Cube.006",
            "primitives" : [
                {
                    "attributes" : {
                        "POSITION" : 12,
                        "NORMAL" : 13,
                        "TEXCOORD_0" : 14
                    },
                    "indices" : 15,
                    "material" : 1
                }
            ]
        },
        {
            "name" : "Cube.007",
            "primitives" : [
                {
                    "attributes" : {
                        "POSITION" : 16,
                        "NORMAL" : 17,
                        "TEXCOORD_0" : 18
                    },
                    "indices" : 19,
                    "material" : 2
                }
            ]
        }
    ],
    "textures" : [
        {
            "sampler" : 0,
            "source" : 0
        },
        {
            "sampler" : 0,
            "source" : 1
        },
        {
            "sampler" : 0,
            "source" : 1
        }
    ],
    "images" : [
        {
            "bufferView" : 4,
            "mimeType" : "image/png",
            "name" : "Stairs"
        },
        {
            "bufferView" : 9,
            "mimeType" : "image/png",
            "name" : "Walls"
        }
    ],
    "accessors" : [
        {
            "bufferView" : 0,
            "componentType" : 5126,
            "count" : 92,
            "max" : [
                8.692190170288086,
                10.582372665405273,
                21.62468719482422
            ],
            "min" : [
                -8.692192077636719,
                -0.03739166259765625,
                -23.600208282470703
            ],
            "type" : "VEC3"
        },
        {
            "bufferView" : 1,
            "componentType" : 5126,
            "count" : 92,
            "type" : "VEC3"
        },
        {
            "bufferView" : 2,
            "componentType" : 5126,
            "count" : 92,
            "type" : "VEC2"
        },
        {
            "bufferView" : 3,
            "componentType" : 5123,
            "count" : 138,
            "type" : "SCALAR"
        },
        {
            "bufferView" : 5,
            "componentType" : 5126,
            "count" : 17,
            "max" : [
                -9.5367431640625e-07,
                9.251219749450684,
                30.453847885131836
            ],
            "min" : [
                -9.5367431640625e-07,
                -6.084121227264404,
                -14.605545997619629
            ],
            "type" : "VEC3"
        },
        {
            "bufferView" : 6,
            "componentType" : 5126,
            "count" : 17,
            "type" : "VEC3"
        },
        {
            "bufferView" : 7,
            "componentType" : 5126,
            "count" : 17,
            "type" : "VEC2"
        },
        {
            "bufferView" : 8,
            "componentType" : 5123,
            "count" : 42,
            "type" : "SCALAR"
        },
        {
            "bufferView" : 10,
            "componentType" : 5126,
            "count" : 51,
            "max" : [
                11.261818885803223,
                7.852084159851074,
                37.56106185913086
            ],
            "min" : [
                -5.752021312713623,
                -7.483257293701172,
                -7.498332977294922
            ],
            "type" : "VEC3"
        },
        {
            "bufferView" : 11,
            "componentType" : 5126,
            "count" : 51,
            "type" : "VEC3"
        },
        {
            "bufferView" : 12,
            "componentType" : 5126,
            "count" : 51,
            "type" : "VEC2"
        },
        {
            "bufferView" : 13,
            "componentType" : 5123,
            "count" : 84,
            "type" : "SCALAR"
        },
        {
            "bufferView" : 14,
            "componentType" : 5126,
            "count" : 36,
            "max" : [
                10.599287986755371,
                4.789267063140869,
                26.955751419067383
            ],
            "min" : [
                -6.835788726806641,
                -2.61232852935791,
                -18.103641510009766
            ],
            "type" : "VEC3"
        },
        {
            "bufferView" : 15,
            "componentType" : 5126,
            "count" : 36,
            "type" : "VEC3"
        },
        {
            "bufferView" : 16,
            "componentType" : 5126,
            "count" : 36,
            "type" : "VEC2"
        },
        {
            "bufferView" : 17,
            "componentType" : 5123,
            "count" : 54,
            "type" : "SCALAR"
        },
        {
            "bufferView" : 18,
            "componentType" : 5126,
            "count" : 28,
            "max" : [
                10.51790714263916,
                5.453620133266668e-07,
                1.9238128662109375
            ],
            "min" : [
                -6.917166709899902,
                0,
                -4.011319160461426
            ],
            "type" : "VEC3"
        },
        {
            "bufferView" : 19,
            "componentType" : 5126,
            "count" : 28,
            "type" : "VEC3"
        },
        {
            "bufferView" : 20,
            "componentType" : 5126,
            "count" : 28,
            "type" : "VEC2"
        },
        {
            "bufferView" : 21,
            "componentType" : 5123,
            "count" : 42,
            "type" : "SCALAR"
        }
    ],
    "bufferViews" : [
        {
            "buffer" : 0,
            "byteLength" : 1104,
            "byteOffset" : 0
        },
        {
            "buffer" : 0,
            "byteLength" : 1104,
            "byteOffset" : 1104
        },
        {
            "buffer" : 0,
            "byteLength" : 736,
            "byteOffset" : 2208
        },
        {
            "buffer" : 0,
            "byteLength" : 276,
            "byteOffset" : 2944
        },
        {
            "buffer" : 0,
            "byteLength" : 370465,
            "byteOffset" : 3220
        },
        {
            "buffer" : 0,
            "byteLength" : 204,
            "byteOffset" : 373688
        },
        {
            "buffer" : 0,
            "byteLength" : 204,
            "byteOffset" : 373892
        },
        {
            "buffer" : 0,
            "byteLength" : 136,
            "byteOffset" : 374096
        },
        {
            "buffer" : 0,
            "byteLength" : 84,
            "byteOffset" : 374232
        },
        {
            "buffer" : 0,
            "byteLength" : 268502,
            "byteOffset" : 374316
        },
        {
            "buffer" : 0,
            "byteLength" : 612,
            "byteOffset" : 642820
        },
        {
            "buffer" : 0,
            "byteLength" : 612,
            "byteOffset" : 643432
        },
        {
            "buffer" : 0,
            "byteLength" : 408,
            "byteOffset" : 644044
        },
        {
            "buffer" : 0,
            "byteLength" : 168,
            "byteOffset" : 644452
        },
        {
            "buffer" : 0,
            "byteLength" : 432,
            "byteOffset" : 644620
        },
        {
            "buffer" : 0,
            "byteLength" : 432,
            "byteOffset" : 645052
        },
        {
            "buffer" : 0,
            "byteLength" : 288,
            "byteOffset" : 645484
        },
        {
            "buffer" : 0,
            "byteLength" : 108,
            "byteOffset" : 645772
        },
        {
            "buffer" : 0,
            "byteLength" : 336,
            "byteOffset" : 645880
        },
        {
            "buffer" : 0,
            "byteLength" : 336,
            "byteOffset" : 646216
        },
        {
            "buffer" : 0,
            "byteLength" : 224,
            "byteOffset" : 646552
        },
        {
            "buffer" : 0,
            "byteLength" : 84,
            "byteOffset" : 646776
        }
    ],
    "samplers" : [
        {
            "magFilter" : 9729,
            "minFilter" : 9986
        }
    ],
    "buffers" : [
        {
            "byteLength" : 646860,
            "uri" : "data:application/octet-stream;base64,"
        }
    ]
}
