{
    "asset" : {
        "generator" : "Khronos glTF Blender I/O v1.4.40",
        "version" : "2.0"
    },
    "extensionsUsed" : [
        "KHR_materials_transmission"
    ],
    "scene" : 0,
    "scenes" : [
        {
            "name" : "Scene",
            "nodes" : [
                0,
                1,
                2
            ]
        }
    ],
    "nodes" : [
        {
            "mesh" : 0,
            "name" : "Door"
        },
        {
            "mesh" : 1,
            "name" : "SideDoor1",
            "translation" : [
                -1.4928643703460693,
                0.007903993129730225,
                -0.036569610238075256
            ]
        },
        {
            "mesh" : 2,
            "name" : "SideDoor2",
            "translation" : [
                1.4147706031799316,
                0.007903993129730225,
                -0.036569610238075256
            ]
        }
    ],
    "materials" : [
        {
            "doubleSided" : true,
            "name" : "Door",
            "pbrMetallicRoughness" : {
                "baseColorTexture" : {
                    "index" : 0,
                    "texCoord" : 0
                },
                "metallicFactor" : 0,
                "roughnessFactor" : 0.5
            }
        },
        {
            "doubleSided" : true,
            "extensions" : {
                "KHR_materials_transmission" : {
                    "transmissionFactor" : 1
                }
            },
            "name" : "DoorGlass",
            "pbrMetallicRoughness" : {
                "baseColorTexture" : {
                    "index" : 1,
                    "texCoord" : 0
                },
                "metallicFactor" : 0,
                "roughnessFactor" : 0
            }
        }
    ],
    "meshes" : [
        {
            "name" : "Plane",
            "primitives" : [
                {
                    "attributes" : {
                        "POSITION" : 0,
                        "NORMAL" : 1,
                        "TEXCOORD_0" : 2
                    },
                    "indices" : 3,
                    "material" : 0
                },
                {
                    "attributes" : {
                        "POSITION" : 4,
                        "NORMAL" : 5,
                        "TEXCOORD_0" : 6
                    },
                    "indices" : 7,
                    "material" : 1
                }
            ]
        },
        {
            "name" : "Plane.001",
            "primitives" : [
                {
                    "attributes" : {
                        "POSITION" : 8,
                        "NORMAL" : 9,
                        "TEXCOORD_0" : 10
                    },
                    "indices" : 11,
                    "material" : 0
                },
                {
                    "attributes" : {
                        "POSITION" : 12,
                        "NORMAL" : 13,
                        "TEXCOORD_0" : 14
                    },
                    "indices" : 15,
                    "material" : 1
                }
            ]
        },
        {
            "name" : "Plane.002",
            "primitives" : [
                {
                    "attributes" : {
                        "POSITION" : 16,
                        "NORMAL" : 17,
                        "TEXCOORD_0" : 18
                    },
                    "indices" : 11,
                    "material" : 0
                },
                {
                    "attributes" : {
                        "POSITION" : 19,
                        "NORMAL" : 20,
                        "TEXCOORD_0" : 21
                    },
                    "indices" : 15,
                    "material" : 1
                }
            ]
        }
    ],
    "textures" : [
        {
            "sampler" : 0,
            "source" : 0
        },
        {
            "sampler" : 0,
            "source" : 0
        }
    ],
    "images" : [
        {
            "bufferView" : 4,
            "mimeType" : "image/png",
            "name" : "Door"
        }
    ],
    "accessors" : [
        {
            "bufferView" : 0,
            "componentType" : 5126,
            "count" : 300,
            "max" : [
                0.9996398091316223,
                1.993735909461975,
                4.3695639106999806e-08
            ],
            "min" : [
                -0.9996398091316223,
                -0.0062639713287353516,
                -0.07712780684232712
            ],
            "type" : "VEC3"
        },
        {
            "bufferView" : 1,
            "componentType" : 5126,
            "count" : 300,
            "type" : "VEC3"
        },
        {
            "bufferView" : 2,
            "componentType" : 5126,
            "count" : 300,
            "type" : "VEC2"
        },
        {
            "bufferView" : 3,
            "componentType" : 5123,
            "count" : 492,
            "type" : "SCALAR"
        },
        {
            "bufferView" : 5,
            "componentType" : 5126,
            "count" : 48,
            "max" : [
                0.9320352077484131,
                1.8730334043502808,
                -0.031440675258636475
            ],
            "min" : [
                -0.9320352077484131,
                0.11443859338760376,
                -0.04568707197904587
            ],
            "type" : "VEC3"
        },
        {
            "bufferView" : 6,
            "componentType" : 5126,
            "count" : 48,
            "type" : "VEC3"
        },
        {
            "bufferView" : 7,
            "componentType" : 5126,
            "count" : 48,
            "type" : "VEC2"
        },
        {
            "bufferView" : 8,
            "componentType" : 5123,
            "count" : 72,
            "type" : "SCALAR"
        },
        {
            "bufferView" : 9,
            "componentType" : 5126,
            "count" : 148,
            "max" : [
                0.5517280101776123,
                1.9869548082351685,
                0.04169805720448494
            ],
            "min" : [
                -0.45977309346199036,
                -0.011086833663284779,
                -0.04169804975390434
            ],
            "type" : "VEC3"
        },
        {
            "bufferView" : 10,
            "componentType" : 5126,
            "count" : 148,
            "type" : "VEC3"
        },
        {
            "bufferView" : 11,
            "componentType" : 5126,
            "count" : 148,
            "type" : "VEC2"
        },
        {
            "bufferView" : 12,
            "componentType" : 5123,
            "count" : 252,
            "type" : "SCALAR"
        },
        {
            "bufferView" : 13,
            "componentType" : 5126,
            "count" : 24,
            "max" : [
                0.4833213984966278,
                1.8597642183303833,
                0.0077021196484565735
            ],
            "min" : [
                -0.3913663923740387,
                0.14179342985153198,
                -0.0077020954340696335
            ],
            "type" : "VEC3"
        },
        {
            "bufferView" : 14,
            "componentType" : 5126,
            "count" : 24,
            "type" : "VEC3"
        },
        {
            "bufferView" : 15,
            "componentType" : 5126,
            "count" : 24,
            "type" : "VEC2"
        },
        {
            "bufferView" : 16,
            "componentType" : 5123,
            "count" : 36,
            "type" : "SCALAR"
        },
        {
            "bufferView" : 17,
            "componentType" : 5126,
            "count" : 148,
            "max" : [
                0.5517280101776123,
                1.9869548082351685,
                0.04169805720448494
            ],
            "min" : [
                -0.45977309346199036,
                -0.011086833663284779,
                -0.04169804975390434
            ],
            "type" : "VEC3"
        },
        {
            "bufferView" : 18,
            "componentType" : 5126,
            "count" : 148,
            "type" : "VEC3"
        },
        {
            "bufferView" : 19,
            "componentType" : 5126,
            "count" : 148,
            "type" : "VEC2"
        },
        {
            "bufferView" : 20,
            "componentType" : 5126,
            "count" : 24,
            "max" : [
                0.4833213984966278,
                1.8597642183303833,
                0.0077021196484565735
            ],
            "min" : [
                -0.3913663923740387,
                0.14179342985153198,
                -0.0077020954340696335
            ],
            "type" : "VEC3"
        },
        {
            "bufferView" : 21,
            "componentType" : 5126,
            "count" : 24,
            "type" : "VEC3"
        },
        {
            "bufferView" : 22,
            "componentType" : 5126,
            "count" : 24,
            "type" : "VEC2"
        }
    ],
    "bufferViews" : [
        {
            "buffer" : 0,
            "byteLength" : 3600,
            "byteOffset" : 0
        },
        {
            "buffer" : 0,
            "byteLength" : 3600,
            "byteOffset" : 3600
        },
        {
            "buffer" : 0,
            "byteLength" : 2400,
            "byteOffset" : 7200
        },
        {
            "buffer" : 0,
            "byteLength" : 984,
            "byteOffset" : 9600
        },
        {
            "buffer" : 0,
            "byteLength" : 252294,
            "byteOffset" : 10584
        },
        {
            "buffer" : 0,
            "byteLength" : 576,
            "byteOffset" : 262880
        },
        {
            "buffer" : 0,
            "byteLength" : 576,
            "byteOffset" : 263456
        },
        {
            "buffer" : 0,
            "byteLength" : 384,
            "byteOffset" : 264032
        },
        {
            "buffer" : 0,
            "byteLength" : 144,
            "byteOffset" : 264416
        },
        {
            "buffer" : 0,
            "byteLength" : 1776,
            "byteOffset" : 264560
        },
        {
            "buffer" : 0,
            "byteLength" : 1776,
            "byteOffset" : 266336
        },
        {
            "buffer" : 0,
            "byteLength" : 1184,
            "byteOffset" : 268112
        },
        {
            "buffer" : 0,
            "byteLength" : 504,
            "byteOffset" : 269296
        },
        {
            "buffer" : 0,
            "byteLength" : 288,
            "byteOffset" : 269800
        },
        {
            "buffer" : 0,
            "byteLength" : 288,
            "byteOffset" : 270088
        },
        {
            "buffer" : 0,
            "byteLength" : 192,
            "byteOffset" : 270376
        },
        {
            "buffer" : 0,
            "byteLength" : 72,
            "byteOffset" : 270568
        },
        {
            "buffer" : 0,
            "byteLength" : 1776,
            "byteOffset" : 270640
        },
        {
            "buffer" : 0,
            "byteLength" : 1776,
            "byteOffset" : 272416
        },
        {
            "buffer" : 0,
            "byteLength" : 1184,
            "byteOffset" : 274192
        },
        {
            "buffer" : 0,
            "byteLength" : 288,
            "byteOffset" : 275376
        },
        {
            "buffer" : 0,
            "byteLength" : 288,
            "byteOffset" : 275664
        },
        {
            "buffer" : 0,
            "byteLength" : 192,
            "byteOffset" : 275952
        }
    ],
    "samplers" : [
        {
            "magFilter" : 9729,
            "minFilter" : 9986
        }
    ],
    "buffers" : [
        {
            "byteLength" : 276144,
            "uri" : "data:application/octet-stream;base64,"
        }
    ]
}
