{
    "asset" : {
        "generator" : "Khronos glTF Blender I/O v1.4.40",
        "version" : "2.0"
    },
    "extensionsUsed" : [
        "KHR_materials_transmission"
    ],
    "scene" : 0,
    "scenes" : [
        {
            "name" : "Scene",
            "nodes" : [
                0,
                1,
                2,
                3
            ]
        }
    ],
    "nodes" : [
        {
            "mesh" : 0,
            "name" : "SideDoorRight",
            "scale" : [
                1.0737470388412476,
                1.0726759433746338,
                1.5290988683700562
            ],
            "translation" : [
                1.2442805767059326,
                0.011097842827439308,
                0
            ]
        },
        {
            "mesh" : 1,
            "name" : "SideDoorLeft",
            "scale" : [
                1.0737470388412476,
                1.0726759433746338,
                1.5290988683700562
            ],
            "translation" : [
                -1.3428168296813965,
                0.011097842827439308,
                0
            ]
        },
        {
            "mesh" : 2,
            "name" : "DoorLeft"
        },
        {
            "mesh" : 3,
            "name" : "DoorRight",
            "rotation" : [
                0,
                0,
                0,
                -1
            ]
        }
    ],
    "animations" : [
        {
            "channels" : [
                {
                    "sampler" : 0,
                    "target" : {
                        "node" : 2,
                        "path" : "translation"
                    }
                }
            ],
            "name" : "DoorLeft_Animation",
            "samplers" : [
                {
                    "input" : 30,
                    "interpolation" : "LINEAR",
                    "output" : 31
                }
            ]
        },
        {
            "channels" : [
                {
                    "sampler" : 0,
                    "target" : {
                        "node" : 3,
                        "path" : "translation"
                    }
                },
                {
                    "sampler" : 1,
                    "target" : {
                        "node" : 3,
                        "path" : "rotation"
                    }
                }
            ],
            "name" : "DoorRight_Animation.001",
            "samplers" : [
                {
                    "input" : 30,
                    "interpolation" : "LINEAR",
                    "output" : 32
                },
                {
                    "input" : 33,
                    "interpolation" : "STEP",
                    "output" : 34
                }
            ]
        }
    ],
    "materials" : [
        {
            "doubleSided" : true,
            "name" : "Door",
            "pbrMetallicRoughness" : {
                "baseColorTexture" : {
                    "index" : 0,
                    "texCoord" : 0
                },
                "metallicFactor" : 0,
                "roughnessFactor" : 0.5
            }
        },
        {
            "doubleSided" : true,
            "extensions" : {
                "KHR_materials_transmission" : {
                    "transmissionFactor" : 1
                }
            },
            "name" : "DoorGlass",
            "pbrMetallicRoughness" : {
                "baseColorTexture" : {
                    "index" : 1,
                    "texCoord" : 0
                },
                "metallicFactor" : 0,
                "roughnessFactor" : 0
            }
        }
    ],
    "meshes" : [
        {
            "name" : "Plane.001",
            "primitives" : [
                {
                    "attributes" : {
                        "POSITION" : 0,
                        "NORMAL" : 1,
                        "TEXCOORD_0" : 2
                    },
                    "indices" : 3,
                    "material" : 0
                },
                {
                    "attributes" : {
                        "POSITION" : 4,
                        "NORMAL" : 5,
                        "TEXCOORD_0" : 6
                    },
                    "indices" : 7,
                    "material" : 1
                }
            ]
        },
        {
            "name" : "Plane.002",
            "primitives" : [
                {
                    "attributes" : {
                        "POSITION" : 8,
                        "NORMAL" : 9,
                        "TEXCOORD_0" : 10
                    },
                    "indices" : 3,
                    "material" : 0
                },
                {
                    "attributes" : {
                        "POSITION" : 11,
                        "NORMAL" : 12,
                        "TEXCOORD_0" : 13
                    },
                    "indices" : 7,
                    "material" : 1
                }
            ]
        },
        {
            "name" : "Plane.003",
            "primitives" : [
                {
                    "attributes" : {
                        "POSITION" : 14,
                        "NORMAL" : 15,
                        "TEXCOORD_0" : 16
                    },
                    "indices" : 17,
                    "material" : 0
                },
                {
                    "attributes" : {
                        "POSITION" : 18,
                        "NORMAL" : 19,
                        "TEXCOORD_0" : 20
                    },
                    "indices" : 21,
                    "material" : 1
                }
            ]
        },
        {
            "name" : "Plane.004",
            "primitives" : [
                {
                    "attributes" : {
                        "POSITION" : 22,
                        "NORMAL" : 23,
                        "TEXCOORD_0" : 24
                    },
                    "indices" : 25,
                    "material" : 0
                },
                {
                    "attributes" : {
                        "POSITION" : 26,
                        "NORMAL" : 27,
                        "TEXCOORD_0" : 28
                    },
                    "indices" : 29,
                    "material" : 1
                }
            ]
        }
    ],
    "textures" : [
        {
            "sampler" : 0,
            "source" : 0
        },
        {
            "sampler" : 0,
            "source" : 0
        }
    ],
    "images" : [
        {
            "bufferView" : 4,
            "mimeType" : "image/png",
            "name" : "Door"
        }
    ],
    "accessors" : [
        {
            "bufferView" : 0,
            "componentType" : 5126,
            "count" : 160,
            "max" : [
                0.551727831363678,
                1.9762972593307495,
                0.04169804975390434
            ],
            "min" : [
                -0.4597732722759247,
                -0.021744370460510254,
                -0.04169805720448494
            ],
            "type" : "VEC3"
        },
        {
            "bufferView" : 1,
            "componentType" : 5126,
            "count" : 160,
            "type" : "VEC3"
        },
        {
            "bufferView" : 2,
            "componentType" : 5126,
            "count" : 160,
            "type" : "VEC2"
        },
        {
            "bufferView" : 3,
            "componentType" : 5123,
            "count" : 252,
            "type" : "SCALAR"
        },
        {
            "bufferView" : 5,
            "componentType" : 5126,
            "count" : 24,
            "max" : [
                0.4833211898803711,
                1.8491066694259644,
                0.024227110669016838
            ],
            "min" : [
                -0.3913666009902954,
                0.13113588094711304,
                -0.024221114814281464
            ],
            "type" : "VEC3"
        },
        {
            "bufferView" : 6,
            "componentType" : 5126,
            "count" : 24,
            "type" : "VEC3"
        },
        {
            "bufferView" : 7,
            "componentType" : 5126,
            "count" : 24,
            "type" : "VEC2"
        },
        {
            "bufferView" : 8,
            "componentType" : 5123,
            "count" : 36,
            "type" : "SCALAR"
        },
        {
            "bufferView" : 9,
            "componentType" : 5126,
            "count" : 160,
            "max" : [
                0.551727831363678,
                1.9762972593307495,
                0.04169804975390434
            ],
            "min" : [
                -0.4597732722759247,
                -0.021744370460510254,
                -0.04169805720448494
            ],
            "type" : "VEC3"
        },
        {
            "bufferView" : 10,
            "componentType" : 5126,
            "count" : 160,
            "type" : "VEC3"
        },
        {
            "bufferView" : 11,
            "componentType" : 5126,
            "count" : 160,
            "type" : "VEC2"
        },
        {
            "bufferView" : 12,
            "componentType" : 5126,
            "count" : 24,
            "max" : [
                0.4833211898803711,
                1.8491066694259644,
                0.024227110669016838
            ],
            "min" : [
                -0.3913666009902954,
                0.13113588094711304,
                -0.024221114814281464
            ],
            "type" : "VEC3"
        },
        {
            "bufferView" : 13,
            "componentType" : 5126,
            "count" : 24,
            "type" : "VEC3"
        },
        {
            "bufferView" : 14,
            "componentType" : 5126,
            "count" : 24,
            "type" : "VEC2"
        },
        {
            "bufferView" : 15,
            "componentType" : 5126,
            "count" : 160,
            "max" : [
                9.3051472083161e-10,
                2.1322500705718994,
                0.02691991813480854
            ],
            "min" : [
                -0.7490795254707336,
                -0.013101862743496895,
                -0.026919934898614883
            ],
            "type" : "VEC3"
        },
        {
            "bufferView" : 16,
            "componentType" : 5126,
            "count" : 160,
            "type" : "VEC3"
        },
        {
            "bufferView" : 17,
            "componentType" : 5126,
            "count" : 160,
            "type" : "VEC2"
        },
        {
            "bufferView" : 18,
            "componentType" : 5123,
            "count" : 252,
            "type" : "SCALAR"
        },
        {
            "bufferView" : 19,
            "componentType" : 5126,
            "count" : 24,
            "max" : [
                -0.050659339874982834,
                2.0027754306793213,
                0.00497241597622633
            ],
            "min" : [
                -0.6984200477600098,
                0.11637289077043533,
                -0.00497242109850049
            ],
            "type" : "VEC3"
        },
        {
            "bufferView" : 20,
            "componentType" : 5126,
            "count" : 24,
            "type" : "VEC3"
        },
        {
            "bufferView" : 21,
            "componentType" : 5126,
            "count" : 24,
            "type" : "VEC2"
        },
        {
            "bufferView" : 22,
            "componentType" : 5123,
            "count" : 36,
            "type" : "SCALAR"
        },
        {
            "bufferView" : 23,
            "componentType" : 5126,
            "count" : 160,
            "max" : [
                0.7490795254707336,
                2.1322500705718994,
                0.026919934898614883
            ],
            "min" : [
                -2.724538461507109e-08,
                -0.013101862743496895,
                -0.026920650154352188
            ],
            "type" : "VEC3"
        },
        {
            "bufferView" : 24,
            "componentType" : 5126,
            "count" : 160,
            "type" : "VEC3"
        },
        {
            "bufferView" : 25,
            "componentType" : 5126,
            "count" : 160,
            "type" : "VEC2"
        },
        {
            "bufferView" : 26,
            "componentType" : 5123,
            "count" : 252,
            "type" : "SCALAR"
        },
        {
            "bufferView" : 27,
            "componentType" : 5126,
            "count" : 24,
            "max" : [
                0.6984200477600098,
                2.0027754306793213,
                0.004972371272742748
            ],
            "min" : [
                0.050659336149692535,
                0.11637289077043533,
                -0.004973098170012236
            ],
            "type" : "VEC3"
        },
        {
            "bufferView" : 28,
            "componentType" : 5126,
            "count" : 24,
            "type" : "VEC3"
        },
        {
            "bufferView" : 29,
            "componentType" : 5126,
            "count" : 24,
            "type" : "VEC2"
        },
        {
            "bufferView" : 30,
            "componentType" : 5123,
            "count" : 36,
            "type" : "SCALAR"
        },
        {
            "bufferView" : 31,
            "componentType" : 5126,
            "count" : 5,
            "max" : [
                0.20833333333333334
            ],
            "min" : [
                0.041666666666666664
            ],
            "type" : "SCALAR"
        },
        {
            "bufferView" : 32,
            "componentType" : 5126,
            "count" : 5,
            "type" : "VEC3"
        },
        {
            "bufferView" : 33,
            "componentType" : 5126,
            "count" : 5,
            "type" : "VEC3"
        },
        {
            "bufferView" : 34,
            "componentType" : 5126,
            "count" : 1,
            "max" : [
                0.041666666666666664
            ],
            "min" : [
                0.041666666666666664
            ],
            "type" : "SCALAR"
        },
        {
            "bufferView" : 35,
            "componentType" : 5126,
            "count" : 1,
            "type" : "VEC4"
        }
    ],
    "bufferViews" : [
        {
            "buffer" : 0,
            "byteLength" : 1920,
            "byteOffset" : 0
        },
        {
            "buffer" : 0,
            "byteLength" : 1920,
            "byteOffset" : 1920
        },
        {
            "buffer" : 0,
            "byteLength" : 1280,
            "byteOffset" : 3840
        },
        {
            "buffer" : 0,
            "byteLength" : 504,
            "byteOffset" : 5120
        },
        {
            "buffer" : 0,
            "byteLength" : 342350,
            "byteOffset" : 5624
        },
        {
            "buffer" : 0,
            "byteLength" : 288,
            "byteOffset" : 347976
        },
        {
            "buffer" : 0,
            "byteLength" : 288,
            "byteOffset" : 348264
        },
        {
            "buffer" : 0,
            "byteLength" : 192,
            "byteOffset" : 348552
        },
        {
            "buffer" : 0,
            "byteLength" : 72,
            "byteOffset" : 348744
        },
        {
            "buffer" : 0,
            "byteLength" : 1920,
            "byteOffset" : 348816
        },
        {
            "buffer" : 0,
            "byteLength" : 1920,
            "byteOffset" : 350736
        },
        {
            "buffer" : 0,
            "byteLength" : 1280,
            "byteOffset" : 352656
        },
        {
            "buffer" : 0,
            "byteLength" : 288,
            "byteOffset" : 353936
        },
        {
            "buffer" : 0,
            "byteLength" : 288,
            "byteOffset" : 354224
        },
        {
            "buffer" : 0,
            "byteLength" : 192,
            "byteOffset" : 354512
        },
        {
            "buffer" : 0,
            "byteLength" : 1920,
            "byteOffset" : 354704
        },
        {
            "buffer" : 0,
            "byteLength" : 1920,
            "byteOffset" : 356624
        },
        {
            "buffer" : 0,
            "byteLength" : 1280,
            "byteOffset" : 358544
        },
        {
            "buffer" : 0,
            "byteLength" : 504,
            "byteOffset" : 359824
        },
        {
            "buffer" : 0,
            "byteLength" : 288,
            "byteOffset" : 360328
        },
        {
            "buffer" : 0,
            "byteLength" : 288,
            "byteOffset" : 360616
        },
        {
            "buffer" : 0,
            "byteLength" : 192,
            "byteOffset" : 360904
        },
        {
            "buffer" : 0,
            "byteLength" : 72,
            "byteOffset" : 361096
        },
        {
            "buffer" : 0,
            "byteLength" : 1920,
            "byteOffset" : 361168
        },
        {
            "buffer" : 0,
            "byteLength" : 1920,
            "byteOffset" : 363088
        },
        {
            "buffer" : 0,
            "byteLength" : 1280,
            "byteOffset" : 365008
        },
        {
            "buffer" : 0,
            "byteLength" : 504,
            "byteOffset" : 366288
        },
        {
            "buffer" : 0,
            "byteLength" : 288,
            "byteOffset" : 366792
        },
        {
            "buffer" : 0,
            "byteLength" : 288,
            "byteOffset" : 367080
        },
        {
            "buffer" : 0,
            "byteLength" : 192,
            "byteOffset" : 367368
        },
        {
            "buffer" : 0,
            "byteLength" : 72,
            "byteOffset" : 367560
        },
        {
            "buffer" : 0,
            "byteLength" : 20,
            "byteOffset" : 367632
        },
        {
            "buffer" : 0,
            "byteLength" : 60,
            "byteOffset" : 367652
        },
        {
            "buffer" : 0,
            "byteLength" : 60,
            "byteOffset" : 367712
        },
        {
            "buffer" : 0,
            "byteLength" : 4,
            "byteOffset" : 367772
        },
        {
            "buffer" : 0,
            "byteLength" : 16,
            "byteOffset" : 367776
        }
    ],
    "samplers" : [
        {
            "magFilter" : 9729,
            "minFilter" : 9986
        }
    ],
    "buffers" : [
        {
            "byteLength" : 367792,
            "uri" : "data:application/octet-stream;base64,"
        }
    ]
}
